<?xml version="1.0" encoding="UTF-8"?><svg id="a" xmlns="http://www.w3.org/2000/svg" viewBox="0 0 140 26"><g id="b"><g><path d="m47.24,24.55V1.64h4.66v19.02h11.6v3.89s-16.26,0-16.26,0Z" style="fill:#707070;"/><path d="m65.88,13.14c0-2.35.35-4.33,1.06-5.93.53-1.18,1.24-2.23,2.15-3.17.91-.93,1.9-1.63,2.99-2.08,1.44-.61,3.1-.91,4.98-.91,3.4,0,6.13,1.06,8.17,3.17,2.04,2.11,3.06,5.05,3.06,8.81s-1.01,6.65-3.04,8.75c-2.03,2.11-4.74,3.16-8.13,3.16s-6.17-1.05-8.19-3.14c-2.03-2.1-3.04-4.98-3.04-8.66h0Zm4.81-.16c0,2.62.6,4.6,1.81,5.95s2.74,2.03,4.6,2.03,3.39-.67,4.58-2.01,1.79-3.35,1.79-6.03-.58-4.62-1.74-5.93c-1.16-1.3-2.7-1.95-4.63-1.95s-3.47.66-4.65,1.98-1.77,3.31-1.77,5.96h0Z" style="fill:#707070;"/><path d="m102.68,16.06v-3.89h10.05v9.2c-.98.95-2.39,1.78-4.25,2.5-1.85.72-3.73,1.08-5.63,1.08-2.42,0-4.52-.51-6.32-1.52s-3.15-2.46-4.05-4.35c-.9-1.88-1.36-3.94-1.36-6.15,0-2.41.5-4.54,1.51-6.41s2.48-3.3,4.43-4.3c1.48-.77,3.32-1.15,5.53-1.15,2.87,0,5.11.6,6.72,1.8,1.61,1.2,2.65,2.87,3.11,4.99l-4.63.87c-.33-1.13-.94-2.03-1.84-2.69-.9-.66-2.02-.98-3.36-.98-2.04,0-3.66.65-4.86,1.94-1.2,1.29-1.8,3.21-1.8,5.75,0,2.74.61,4.8,1.83,6.17,1.22,1.37,2.82,2.06,4.79,2.06.98,0,1.96-.19,2.94-.58.98-.38,1.83-.85,2.53-1.39v-2.93h-5.34v-.02Z" style="fill:#707070;"/><path d="m116.09,13.14c0-2.35.35-4.33,1.06-5.93.53-1.18,1.24-2.23,2.15-3.17.91-.93,1.9-1.63,2.99-2.08,1.44-.61,3.1-.91,4.98-.91,3.4,0,6.13,1.06,8.17,3.17,2.04,2.11,3.06,5.05,3.06,8.81s-1.01,6.65-3.04,8.75c-2.03,2.11-4.74,3.16-8.13,3.16s-6.17-1.05-8.19-3.14c-2.03-2.1-3.04-4.98-3.04-8.66h-.01Zm4.81-.16c0,2.62.6,4.6,1.81,5.95s2.74,2.03,4.6,2.03,3.39-.67,4.58-2.01,1.79-3.35,1.79-6.03-.58-4.62-1.74-5.93c-1.16-1.3-2.7-1.95-4.63-1.95s-3.47.66-4.65,1.98-1.77,3.31-1.77,5.96h.01Z" style="fill:#707070;"/></g></g><g><path d="m14.3,13c0-4.31,2.04-8.14,5.2-10.61-1.74-.97-3.74-1.52-5.87-1.52-6.7,0-12.13,5.43-12.13,12.13s5.43,12.13,12.13,12.13c2.13,0,4.13-.55,5.87-1.52-3.16-2.47-5.2-6.3-5.2-10.61Z" style="fill:#707070;"/><path d="m27.78.87c-2.64,0-5.08.86-7.08,2.29-3.06,2.2-5.05,5.78-5.05,9.84s2,7.64,5.05,9.84c1.99,1.44,4.43,2.29,7.08,2.29,6.7,0,12.13-5.43,12.13-12.13S34.48.87,27.78.87Zm0,22.91c-2.22,0-4.28-.67-5.99-1.82,2.43-2.22,3.97-5.4,3.97-8.96s-1.54-6.74-3.97-8.96c1.72-1.15,3.78-1.82,5.99-1.82,5.95,0,10.78,4.84,10.78,10.78s-4.84,10.78-10.78,10.78Z" style="fill:#707070;"/></g></svg>
